<svg width="211" height="48" viewBox="0 0 211 48" fill="none" xmlns="http://www.w3.org/2000/svg">
<g clip-path="url(#clip0_68_228)">
<path fill-rule="evenodd" clip-rule="evenodd" d="M17.983 33.6C16.3932 33.6 14.8685 32.9679 13.7443 31.8426C12.6202 30.7174 11.9886 29.1913 11.9886 27.6V0H0V27.6C0 37.5408 8.05157 45.6 17.983 45.6H31.1705V33.6H17.983ZM53.9489 12C52.5319 12 51.1289 12.2794 49.8198 12.8221C48.5107 13.3649 47.3213 14.1604 46.3193 15.1632C45.3174 16.1661 44.5227 17.3567 43.9804 18.667C43.4382 19.9773 43.1591 21.3817 43.1591 22.8C43.1591 24.2183 43.4382 25.6227 43.9804 26.933C44.5227 28.2433 45.3174 29.4339 46.3193 30.4368C47.3213 31.4396 48.5107 32.2351 49.8198 32.7779C51.1289 33.3207 52.5319 33.6 53.9489 33.6C56.8105 33.6 59.5549 32.4621 61.5784 30.4368C63.6019 28.4114 64.7386 25.6643 64.7386 22.8C64.7386 19.9357 63.6019 17.1886 61.5784 15.1632C59.5549 13.1379 56.8105 12 53.9489 12ZM31.1705 22.8C31.1705 10.2084 41.3692 0 53.9489 0C66.5285 0 76.7273 10.2084 76.7273 22.8C76.7273 35.3916 66.5285 45.6 53.9489 45.6C41.3692 45.6 31.1705 35.3916 31.1705 22.8ZM183.426 12C180.565 12 177.82 13.1379 175.797 15.1632C173.773 17.1886 172.636 19.9357 172.636 22.8C172.636 25.6643 173.773 28.4114 175.797 30.4368C177.82 32.4621 180.565 33.6 183.426 33.6C186.288 33.6 189.032 32.4621 191.056 30.4368C193.079 28.4114 194.216 25.6643 194.216 22.8C194.216 19.9357 193.079 17.1886 191.056 15.1632C189.032 13.1379 186.288 12 183.426 12ZM160.648 22.8C160.648 10.2084 170.846 0 183.426 0C196.006 0 206.205 10.2084 206.205 22.8C206.205 35.3916 196.006 45.6 183.426 45.6C170.846 45.6 160.648 35.3916 160.648 22.8ZM101.903 0C89.3237 0 79.125 10.2084 79.125 22.8C79.125 35.3916 89.3237 45.6 101.903 45.6H135.472C137.832 45.6 140.109 45.24 142.25 44.5728L148.659 48L155.574 35.0352C157.331 31.7348 158.25 28.0527 158.25 24.3132V22.8C158.25 10.2084 148.051 0 135.472 0H101.903ZM146.261 22.8C146.261 19.9357 145.125 17.1886 143.101 15.1632C141.078 13.1379 138.333 12 135.472 12H101.903C100.486 12 99.0834 12.2794 97.7743 12.8221C96.4653 13.3649 95.2758 14.1604 94.2739 15.1632C93.272 16.1661 92.4772 17.3567 91.935 18.667C91.3927 19.9773 91.1136 21.3817 91.1136 22.8C91.1136 24.2183 91.3927 25.6227 91.935 26.933C92.4772 28.2433 93.272 29.4339 94.2739 30.4368C95.2758 31.4396 96.4653 32.2351 97.7743 32.7779C99.0834 33.3207 100.486 33.6 101.903 33.6H135.472C138.319 33.6001 141.051 32.4738 143.072 30.4665C145.093 28.4592 146.239 25.7338 146.261 22.884V22.8Z" fill="white"/>
<path d="M211 3C211 3.79565 210.684 4.55871 210.122 5.12132C209.56 5.68393 208.798 6 208.003 6C207.208 6 206.446 5.68393 205.884 5.12132C205.321 4.55871 205.006 3.79565 205.006 3C205.006 2.20435 205.321 1.44129 205.884 0.87868C206.446 0.316071 207.208 0 208.003 0C208.798 0 209.56 0.316071 210.122 0.87868C210.684 1.44129 211 2.20435 211 3Z" fill="white"/>
</g>
<defs>
<clipPath id="clip0_68_228">
<rect width="211" height="48" fill="white"/>
</clipPath>
</defs>
</svg>
