<svg width="187" height="71" viewBox="0 0 187 71" fill="none" xmlns="http://www.w3.org/2000/svg">
<g clip-path="url(#clip0_68_232)">
<path d="M19.6268 30.5656C19.5715 31.8599 19.5439 33.4986 19.5439 35.4815C19.5439 37.4643 19.5715 39.1167 19.6268 40.4386C19.682 41.7331 19.7924 42.7658 19.9582 43.537C20.1516 44.308 20.414 44.845 20.7456 45.1481C21.1048 45.4509 21.5744 45.6025 22.1546 45.6025C22.7347 45.6025 23.1905 45.4509 23.5221 45.1481C23.8812 44.845 24.1437 44.308 24.3095 43.537C24.5029 42.7658 24.6271 41.7331 24.6824 40.4386C24.7377 39.1167 24.7653 37.4643 24.7653 35.4815C24.7653 33.4986 24.7377 31.8599 24.6824 30.5656C24.6271 29.2436 24.5029 28.197 24.3095 27.426C24.1437 26.6548 23.8812 26.1178 23.5221 25.8149C23.1905 25.5119 22.7347 25.3604 22.1546 25.3604C21.5744 25.3604 21.1048 25.5119 20.7456 25.8149C20.414 26.1178 20.1516 26.6548 19.9582 27.426C19.7924 28.197 19.682 29.2436 19.6268 30.5656Z" fill="white"/>
<path fill-rule="evenodd" clip-rule="evenodd" d="M20.2216 5.27962C9.41727 5.50728 0.829219 14.2867 1.00258 24.9267L1.21559 37.9999L1.00258 51.0731C0.829219 61.7133 9.41727 70.4927 20.2216 70.7202L33.4999 71L46.7782 70.7202C57.5826 70.4927 66.1708 61.7133 65.9974 51.0731L65.7844 37.9999L65.9974 24.9267C66.1708 14.2867 57.5826 5.50728 46.7782 5.27962L33.4999 5L20.2216 5.27962ZM33.9587 54.647L28.9401 58.927L24.3697 54.0734C24.0112 54.1323 23.6526 54.1765 23.2943 54.2059C22.9656 54.2646 22.5922 54.2942 22.174 54.2942H21.3675C19.2465 54.2942 17.4541 54.0147 15.9904 53.4558C14.5266 52.8969 13.3467 51.9702 12.4506 50.6761C11.5545 49.3523 10.9121 47.6609 10.5238 45.6019C10.1355 43.5134 9.94128 40.9983 9.94128 38.0569C9.94128 35.1153 10.1355 32.615 10.5238 30.5559C10.9121 28.4674 11.5545 26.7761 12.4506 25.4818C13.3467 24.158 14.5266 23.202 15.9904 22.6138C17.4541 21.996 19.2465 21.6871 21.3675 21.6871C23.4884 21.6871 25.2807 21.996 26.7444 22.6138C28.2082 23.202 29.3883 24.158 30.2844 25.4818C31.1805 26.7761 31.8228 28.4674 32.2112 30.5559C32.5995 32.615 32.7937 35.1153 32.7937 38.0569C32.7937 41.0865 32.5846 43.6457 32.1663 45.7342C31.7481 47.8227 31.0611 49.5289 30.1051 50.8526L33.9587 54.647ZM48.1031 33.6444V31.8796C48.1031 30.0852 47.9239 28.8645 47.5654 28.2174C47.207 27.5703 46.6245 27.2466 45.8178 27.2466C45.1906 27.2466 44.6828 27.4084 44.2945 27.7321C43.9359 28.0556 43.6521 28.6292 43.4431 29.4529C43.2638 30.2764 43.1444 31.3943 43.0845 32.8062C43.0247 34.1887 42.9949 35.939 42.9949 38.0569C42.9949 40.1748 43.0247 41.9396 43.0845 43.3516C43.1444 44.7342 43.2638 45.8372 43.4431 46.6609C43.6521 47.4844 43.9359 48.058 44.2945 48.3817C44.6828 48.7052 45.1906 48.867 45.8178 48.867C46.3256 48.867 46.744 48.7494 47.0725 48.514C47.4012 48.2492 47.655 47.8227 47.8343 47.2345C48.0135 46.6462 48.133 45.8665 48.1928 44.8959C48.2824 43.8958 48.3271 42.6457 48.3271 41.1454H56.3926V43.484C56.3926 45.6902 56.0939 47.4992 55.4965 48.911C54.8991 50.323 54.1075 51.4408 53.1217 52.2644C52.1358 53.0587 51.0008 53.5881 49.7161 53.8529C48.4617 54.147 47.1621 54.2942 45.8178 54.2942C43.4878 54.2942 41.5761 54.0147 40.0824 53.4558C38.5888 52.8969 37.4238 51.9702 36.5873 50.6761C35.7508 49.3523 35.1683 47.6609 34.8398 45.6019C34.5411 43.5134 34.3916 40.9983 34.3916 38.0569C34.3916 35.0564 34.5709 32.5121 34.9294 30.4236C35.3177 28.3351 35.9601 26.6436 36.8562 25.3494C37.7523 24.0551 38.9323 23.1285 40.396 22.5695C41.8597 21.9813 43.6671 21.6871 45.8178 21.6871C47.6999 21.6871 49.298 21.9225 50.6124 22.3932C51.9267 22.8639 52.9872 23.5404 53.7939 24.4228C54.6302 25.2759 55.2276 26.3201 55.5861 27.5556C55.9745 28.7615 56.1687 30.1294 56.1687 31.659V33.6444H48.1031Z" fill="white"/>
<path fill-rule="evenodd" clip-rule="evenodd" d="M92.644 25.5849L99.3998 32.5739L106.156 25.5849H117.893L105.26 37.5661L117.893 49.5471H106.156L99.3998 42.5403L92.644 49.5471H80.8884L93.5221 37.5661L80.8884 25.5849H92.644ZM91.9927 37.5661L78.2519 24.5352H93.0931L99.3998 31.0595L105.707 24.5352H120.018V24.5174H144.273C149.82 24.4609 154.514 29.0843 154.438 34.6318C154.437 36.6272 153.896 38.4666 152.812 40.1037C151.997 41.3428 150.964 42.3624 149.726 43.1376L154.898 49.7574V45.4643C154.898 42.1007 157.419 39.9564 160.32 38.5343C163.249 37.0986 166.945 36.2015 170.023 35.4758L170.027 35.4748L170.062 35.466C171.959 35.0009 173.575 34.6049 174.725 34.1779C175.307 33.9614 175.689 33.7655 175.907 33.599C175.934 33.5779 175.957 33.5591 175.977 33.543C175.91 33.4819 175.774 33.3908 175.505 33.2859C174.879 33.0416 173.811 32.8576 172.193 32.8571C170.464 32.875 168.994 33.0151 167.991 33.3659C167.497 33.5389 167.198 33.7359 167.03 33.9208C166.887 34.0795 166.802 34.2679 166.81 34.5634L166.836 35.6384H155.273V34.5886C155.273 32.4336 155.698 30.6317 156.546 29.1553C157.4 27.6723 158.642 26.5895 160.158 25.8129C163.131 24.2891 167.227 23.9111 171.794 23.9111C176.471 23.9111 180.353 24.4491 183.102 25.834C184.493 26.5359 185.624 27.4699 186.401 28.6846C187.18 29.9025 187.562 31.3361 187.562 32.9662C187.562 35.9828 185.736 37.9042 183.497 39.1565C181.324 40.3724 178.589 41.0629 176.318 41.6154H187.168V50.5614H155.525L155.539 50.5792H142.864L138.33 44.7312H131.518V50.5792H120.511L120.53 50.597H105.706L99.3998 44.0569L93.0939 50.597H78.2519L91.9927 37.5661ZM120.018 50.1109V25.0212L106.789 37.5661L120.018 50.1109ZM138.85 43.6815L143.384 49.5293H153.382L148.131 42.8077C148.46 42.6559 148.774 42.4879 149.076 42.3042C150.224 41.603 151.179 40.6714 151.931 39.5272C152.899 38.0652 153.382 36.425 153.382 34.6243C153.455 29.6677 149.244 25.5136 144.279 25.5671H121.073V49.5293H130.462V43.6815H138.85ZM170.791 42.6651C171.12 42.2643 171.715 41.9235 172.506 41.6154C173.438 41.2516 174.639 40.9332 175.987 40.6149C180.611 39.4916 186.507 37.9583 186.507 32.9662C186.507 27.1182 181.059 24.9609 171.794 24.9609C163.082 24.9609 156.904 26.3757 156.368 33.5387C156.342 33.8759 156.328 34.2256 156.328 34.5886H165.755C165.754 34.549 165.754 34.5101 165.755 34.4717C165.807 32.3419 168.756 31.8423 172.188 31.8072C175.539 31.8072 177.08 32.5561 177.08 33.5724C177.08 34.8269 174.107 35.556 170.373 36.4713L170.271 36.4963C164.07 37.9583 155.952 39.9908 155.952 45.4643V49.5115H186.112V42.6651H170.791ZM176.036 33.6235C176.036 33.6235 176.03 33.6168 176.027 33.6014C176.036 33.6153 176.036 33.6235 176.036 33.6235ZM142.92 34.6243C142.92 34.0631 142.478 33.6238 141.914 33.6238H131.518V35.6069H141.914C142.217 35.6069 142.429 35.5153 142.618 35.3261C142.835 35.1107 142.92 34.8953 142.92 34.6243ZM143.975 34.6243C143.975 33.4831 143.061 32.5739 141.914 32.5739H130.462V36.6567H141.914C142.487 36.6567 142.972 36.4606 143.366 36.0684C143.778 35.6583 143.975 35.177 143.975 34.6243Z" fill="white"/>
<path d="M81.7574 66.8343H86.2549V60.6955L90.7608 66.8343H93.0095L97.5155 60.6955V66.8343H102.013V55.3271H96.3912L91.8852 61.0807L87.3879 55.3271H81.7574V66.8343Z" fill="white"/>
<path d="M111.488 55.0444C107.145 55.053 103.592 56.3029 103.609 60.661V61.5C103.592 65.8494 107.145 67.1081 111.488 67.1165C115.822 67.1081 119.376 65.8494 119.359 61.5V60.661C119.359 56.3116 115.831 55.0444 111.488 55.0444ZM114.861 61.2175C114.887 63.1011 113.325 63.4436 111.488 63.4693C109.643 63.4436 108.081 63.1011 108.107 61.2175V60.935C108.081 59.0599 109.643 58.7174 111.488 58.6917C113.325 58.7174 114.887 59.0599 114.861 60.935V61.2175Z" fill="white"/>
<path d="M131.958 61.0978C131.958 62.2536 131.297 63.204 130.13 63.204H125.204V58.9916H130.13C131.297 58.9916 131.958 59.9333 131.958 61.0978ZM120.706 55.3443V66.8513H130.971C134.138 66.8942 136.49 64.2229 136.464 61.0978C136.49 57.9556 134.138 55.3014 130.971 55.3443H120.706Z" fill="white"/>
<path d="M148.986 61.2263C149.012 63.1184 147.451 63.4438 145.613 63.4695C143.769 63.4438 142.215 63.1184 142.232 61.2263V55.3271H137.734V61.5088C137.718 65.8583 141.288 67.1083 145.613 67.1168C149.939 67.1083 153.51 65.8583 153.493 61.5088V55.3271H148.986V61.2263Z" fill="white"/>
<path d="M155.517 55.3271V66.8343H169.019V63.187H160.015V55.3271H155.517Z" fill="white"/>
<path d="M170.555 66.8512H184.057V63.8975H175.052V62.4248H184.057V59.7621H175.052V58.2894H184.057V55.3442H170.555V66.8512Z" fill="white"/>
<path d="M84.3469 11.4893V9.06431H91.013C91.3359 9.06431 91.617 9.18078 91.8461 9.42429C92.0857 9.65738 92.2003 9.9432 92.2003 10.282C92.2003 10.6104 92.0857 10.8963 91.8461 11.1399C91.617 11.3729 91.3359 11.4893 91.013 11.4893H84.3469ZM78.8893 4.90265V19.135H84.3469V15.6616H92.3774C95.2626 15.704 97.7102 13.2154 97.6685 10.282C97.7102 7.33825 95.2626 4.87077 92.3774 4.90265H78.8893Z" fill="white"/>
<path d="M108.532 4.53174C103.262 4.54231 98.9496 6.08845 98.9704 11.4786V12.5164C98.9496 17.8959 103.262 19.4525 108.532 19.463C113.791 19.4525 118.104 17.8959 118.083 12.5164V11.4786C118.083 6.09903 113.802 4.53174 108.532 4.53174ZM112.624 12.1668C112.656 14.4965 110.761 14.9201 108.532 14.952C106.293 14.9201 104.397 14.4965 104.428 12.1668V11.8174C104.397 9.49826 106.293 9.07468 108.532 9.04296C110.761 9.07468 112.656 9.49826 112.624 11.8174V12.1668Z" fill="white"/>
<path d="M139.362 13.9145L136.122 4.90283H129.977L126.728 13.9145L123.488 4.90283H117.343L123.488 19.1352H129.977L133.05 12.019L136.122 19.1352H142.611L148.757 4.90283H142.611L139.362 13.9145Z" fill="white"/>
<path d="M149.174 19.1352H165.557V15.4818H154.631V13.6603H165.557V10.367H154.631V8.54558H165.557V4.90283H149.174V19.1352Z" fill="white"/>
<path d="M168.463 4.8919V19.1244H173.92V15.651H178.795L181.431 19.1244H187.242L184.19 15.1321C185.107 14.6979 185.846 14.0414 186.398 13.1836C186.962 12.3153 187.242 11.3411 187.242 10.2714C187.284 7.32751 184.836 4.86018 181.952 4.8919H168.463ZM180.576 9.05371C181.243 9.05371 181.774 9.59377 181.774 10.2714C181.774 10.5997 181.659 10.8857 181.42 11.1292C181.191 11.3623 180.909 11.4787 180.576 11.4787H173.92V9.05371H180.576Z" fill="white"/>
</g>
<defs>
<clipPath id="clip0_68_232">
<rect width="187" height="71" fill="white"/>
</clipPath>
</defs>
</svg>
