<svg width="233" height="59" viewBox="0 0 233 59" fill="none" xmlns="http://www.w3.org/2000/svg">
<path d="M5.75839 54.7223H55.9807V4.27734H5.75839V54.7223ZM46.3141 24.6461H35.7019V13.9868H46.3141V24.6461ZM15.423 13.9868H26.0412V34.3536H46.3141V45.0129H15.423V13.9868ZM88.6849 4.27734C83.7183 4.27734 78.8633 5.75663 74.7339 8.52812C70.6043 11.2996 67.3858 15.2388 65.4851 19.8476C63.5845 24.4565 63.0874 29.5278 64.0562 34.4204C65.0252 39.3131 67.4167 43.8073 70.9285 47.3348C74.4404 50.8624 78.9148 53.2645 83.7858 54.2378C88.6571 55.2109 93.7059 54.7115 98.2945 52.8025C102.883 50.8934 106.805 47.6606 109.564 43.5127C112.323 39.3648 113.796 34.4883 113.796 29.4998C113.788 22.8128 111.14 16.4019 106.432 11.6735C101.725 6.94503 95.3424 4.28515 88.6849 4.27734ZM88.6849 45.0129C85.6302 45.0129 82.6441 44.1031 80.1042 42.3984C77.5645 40.6939 75.5848 38.2712 74.4159 35.4364C73.247 32.6019 72.9411 29.4827 73.537 26.4733C74.133 23.4641 75.604 20.7 77.7639 18.5304C79.9239 16.3609 82.6758 14.8834 85.6718 14.2849C88.6677 13.6863 91.773 13.9935 94.5953 15.1676C97.4173 16.3418 99.8295 18.3301 101.527 20.8813C103.224 23.4323 104.129 26.4316 104.129 29.4998C104.123 33.6123 102.494 37.5545 99.5989 40.4624C96.7038 43.3704 92.779 45.0066 88.6849 45.0129ZM203.656 4.27734C198.688 4.27697 193.834 5.7559 189.704 8.52715C185.574 11.2984 182.356 15.2375 180.455 19.8463C178.554 24.455 178.056 29.5266 179.025 34.4193C179.993 39.3121 182.385 43.8066 185.897 47.3342C189.408 50.8618 193.883 53.2643 198.755 54.2376C203.624 55.2109 208.674 54.7115 213.264 52.8027C217.851 50.8936 221.773 47.6608 224.532 43.5129C227.292 39.365 228.765 34.4885 228.765 29.4998C228.757 22.8132 226.11 16.4026 221.403 11.6742C216.696 6.94578 210.313 4.28568 203.656 4.27734ZM203.656 45.0129C200.601 45.0133 197.615 44.1037 195.075 42.3994C192.535 40.6951 190.555 38.2724 189.385 35.4378C188.216 32.6032 187.91 29.4839 188.506 26.4745C189.101 23.4653 190.572 20.701 192.732 18.5312C194.892 16.3614 197.645 14.8837 200.64 14.285C203.636 13.6863 206.741 13.9934 209.563 15.1675C212.386 16.3415 214.799 18.3299 216.496 20.8811C218.192 23.4323 219.098 26.4316 219.098 29.4998C219.092 33.6119 217.463 37.5537 214.568 40.4617C211.674 43.3696 207.75 45.0062 203.656 45.0129ZM146.169 4.27734C141.203 4.27734 136.348 5.75663 132.218 8.52812C128.089 11.2996 124.87 15.2388 122.97 19.8476C121.069 24.4565 120.572 29.5278 121.541 34.4204C122.51 39.3131 124.901 43.8073 128.413 47.3348C131.925 50.8624 136.399 53.2645 141.27 54.2378C146.141 55.2109 151.19 54.7115 155.779 52.8025C160.367 50.8934 164.289 47.6606 167.048 43.5127C169.808 39.3648 171.28 34.4883 171.28 29.4998C171.273 22.8128 168.624 16.4019 163.917 11.6735C159.209 6.94503 152.827 4.28515 146.169 4.27734ZM146.169 45.0129C143.323 45.0143 140.532 44.2259 138.104 42.7345C135.676 41.2432 133.706 39.1072 132.41 36.562C131.115 34.0167 130.544 31.1613 130.762 28.3112C130.98 25.4609 131.978 22.7266 133.646 20.4101C135.313 18.0937 137.586 16.285 140.212 15.1839C142.839 14.0828 145.717 13.7319 148.529 14.1701C151.342 14.6084 153.979 15.8186 156.149 17.6672C158.32 19.5159 159.94 21.9311 160.831 24.6461H146.169V34.3536H160.831C159.811 37.4517 157.846 40.1488 155.214 42.0619C152.583 43.9753 149.418 45.0076 146.169 45.0129Z" fill="white"/>
</svg>
