<svg width="211" height="50" viewBox="0 0 211 50" fill="none" xmlns="http://www.w3.org/2000/svg">
<g clip-path="url(#clip0_68_217)">
<path fill-rule="evenodd" clip-rule="evenodd" d="M12.5037 3.125V50H0V3.125H12.5037Z" fill="white"/>
<path fill-rule="evenodd" clip-rule="evenodd" d="M18.7555 3.125H45.3259C53.9579 3.125 60.9555 10.1205 60.9555 18.75C60.9555 27.3795 53.9579 34.375 45.3259 34.375H31.2592V50H18.7555V3.125ZM31.2592 21.875H45.3259C47.0524 21.875 48.4518 20.4759 48.4518 18.75C48.4518 17.0241 47.0524 15.625 45.3259 15.625H31.2592V21.875Z" fill="white"/>
<path fill-rule="evenodd" clip-rule="evenodd" d="M107.844 3.125V27.3438C107.844 32.9529 112.393 37.5 118.004 37.5C123.615 37.5 128.163 32.9529 128.163 27.3438V3.125H140.667V27.3438C140.667 39.8565 130.52 50 118.004 50C105.487 50 95.3408 39.8565 95.3408 27.3438V3.125H107.844Z" fill="white"/>
<path fill-rule="evenodd" clip-rule="evenodd" d="M65.6445 25C65.6445 12.9187 75.4411 3.125 87.5259 3.125H90.6518V15.625H87.5259C82.3467 15.625 78.1482 19.8224 78.1482 25V26.5625C78.1482 39.5066 67.6517 50 54.7037 50H53.1408V37.5H54.7037C60.7462 37.5 65.6445 32.6031 65.6445 26.5625V25Z" fill="white"/>
<path d="M211 4.6875C211 7.27634 208.901 9.375 206.311 9.375C203.721 9.375 201.622 7.27634 201.622 4.6875C201.622 2.09866 203.721 0 206.311 0C208.901 0 211 2.09866 211 4.6875Z" fill="white"/>
<path d="M154.092 50.0001L160.059 25.0227L164.495 40.0492C167.139 49.0115 179.838 49.0115 182.484 40.0492L186.919 25.0227L192.885 50.0001H205.74L196.359 10.7245C194.127 1.3844 180.962 1.03858 178.243 10.2487L173.489 26.3542L168.735 10.2488C166.017 1.03863 152.85 1.38435 150.619 10.7245L141.238 50.0001H154.092Z" fill="white"/>
</g>
<defs>
<clipPath id="clip0_68_217">
<rect width="211" height="50" fill="white"/>
</clipPath>
</defs>
</svg>
