<svg width="187" height="23" viewBox="0 0 187 23" fill="none" xmlns="http://www.w3.org/2000/svg">
<path d="M179.98 11.633C176.324 11.633 173.765 9.3396 173.765 5.81648C173.765 2.29335 176.324 0 179.98 0C183.669 0 186.195 2.29335 186.195 5.81648C186.195 9.3396 183.669 11.633 179.98 11.633ZM179.98 9.60549C182.905 9.60549 184.002 8.57515 184.002 5.81648C184.002 3.0578 182.905 2.02746 179.98 2.02746C177.088 2.02746 175.991 3.0578 175.991 5.81648C175.991 8.57515 177.088 9.60549 179.98 9.60549ZM179.116 8.07659H177.454V3.42341H180.611C181.908 3.42341 182.639 3.92197 182.639 4.91908C182.639 5.78324 182.041 6.24856 181.276 6.24856V6.31503C181.642 6.44798 181.841 6.61416 182.14 7.07948L182.805 8.07659H180.944L180.346 7.07948C180.179 6.78035 180.013 6.68064 179.614 6.68064H179.116V8.07659ZM179.116 4.81937V5.58382H180.578C180.877 5.58382 181.01 5.45087 181.01 5.18497C181.01 4.88584 180.877 4.81937 180.578 4.81937H179.116Z" fill="white"/>
<path d="M172.177 22.6676H153.332V0.398842H172.177V4.88584H158.317V9.23988H171.678V13.6936H158.317V18.1806H172.177V22.6676Z" fill="white"/>
<path d="M143.268 22.6676H138.283V4.88584H130.007V0.398842H151.544V4.88584H143.268V22.6676Z" fill="white"/>
<path d="M128.261 22.6676H123.276V0.398842H128.261V22.6676Z" fill="white"/>
<path d="M111.341 23C104.593 23 100.804 20.341 100.804 15.1561V14.9566H105.79V15.5549C105.79 17.6156 106.82 18.4465 111.341 18.4465C115.329 18.4465 116.26 17.8483 116.26 16.3526C116.26 14.9899 115.495 14.4913 113.202 14.0925L106.953 13.1951C102.965 12.5636 100.605 10.5694 100.605 6.94653C100.605 3.58959 103.33 0.0664711 110.809 0.0664711C117.656 0.0664711 120.846 3.22398 120.846 7.9104V8.10982H115.828V7.64451C115.828 5.51734 114.731 4.61994 110.31 4.61994C106.721 4.61994 105.624 5.31792 105.624 6.74711C105.624 8.04335 106.355 8.50867 108.216 8.84104L114.465 9.83815C119.45 10.6358 121.245 13.0621 121.245 16.1199C121.245 19.7428 118.42 23 111.341 23Z" fill="white"/>
<path d="M79.0012 22.6676H73.4174L83.1559 0.398842H90.2686L100.073 22.6676H94.3567L92.2628 17.7486H81.1284L79.0012 22.6676ZM85.1501 8.40896L83.0562 13.2616H90.335L88.2411 8.40896L86.8784 4.95231H86.5128L85.1501 8.40896Z" fill="white"/>
<path d="M64.6127 22.6676H57.5L48.2601 0.398842H54.276L60.9567 17.6156H61.289L67.87 0.398842H73.8526L64.6127 22.6676Z" fill="white"/>
<path d="M35.5831 23C28.2044 23 23.6177 18.4798 23.6177 11.5332C23.6177 4.5867 28.2044 0.0664711 35.5831 0.0664711C43.1279 0.0664711 47.6813 4.5867 47.6813 11.5332C47.6813 18.4798 43.1279 23 35.5831 23ZM35.5831 18.2139C40.4689 18.2139 42.3634 16.4855 42.3634 11.5332C42.3634 6.58092 40.4689 4.8526 35.5831 4.8526C30.6972 4.8526 28.9024 6.58092 28.9024 11.5332C28.9024 16.4855 30.6972 18.2139 35.5831 18.2139Z" fill="white"/>
<path d="M4.98555 22.6676H0V0.398842H5.31792L13.2948 10.935L16.3526 15.6214H16.7182L16.4856 11.1344V0.398842H21.4711V22.6676H16.1532L7.94364 12.0318L5.1185 7.84393H4.78613L4.98555 11.9321V22.6676Z" fill="white"/>
</svg>
